<svg width="52" height="42" viewBox="0 0 52 42" fill="none" xmlns="http://www.w3.org/2000/svg">
<mask id="path-1-outside-1_1_3" maskUnits="userSpaceOnUse" x="0" y="0" width="52" height="39" fill="black">
<rect fill="white" width="52" height="39"/>
<path d="M2 4C2 2.89543 2.89543 2 4 2H48C49.1046 2 50 2.89543 50 4V31C50 32.1046 49.1046 33 48 33H4C2.89543 33 2 32.1046 2 31V4Z"/>
</mask>
<path d="M0 4C0 1.79086 1.79086 0 4 0H48C50.2091 0 52 1.79086 52 4H48H4H0ZM52 35C52 37.2091 50.2091 39 48 39H4C1.79086 39 0 37.2091 0 35L4 27H48L52 35ZM4 39C1.79086 39 0 37.2091 0 35V4C0 1.79086 1.79086 0 4 0V4V27V39ZM48 0C50.2091 0 52 1.79086 52 4V35C52 37.2091 50.2091 39 48 39V27V4V0Z" fill="#CD1429" mask="url(#path-1-outside-1_1_3)"/>
<ellipse cx="26" cy="36" rx="0.962963" ry="1" fill="#171118"/>
<path d="M21 39H32V39.1716C32 39.702 32.2107 40.2107 32.5858 40.5858L33.4879 41.4879C33.6769 41.6769 33.543 42 33.2757 42H26H19.7243C19.457 42 19.3231 41.6769 19.5121 41.4879L20.4142 40.5858C20.7893 40.2107 21 39.702 21 39.1716V39Z" fill="#CD1429"/>
<path d="M15.3075 18.674V17.2422L22.1087 14.1001V15.8651L17.2763 17.9382L17.331 17.8438V18.0724L17.2763 17.978L22.1087 20.0511V21.8161L15.3075 18.674ZM28.5009 11.3409L25.2196 23.5312H23.6436L26.9249 11.3409H28.5009ZM36.8333 18.674L30.0321 21.8161V20.0511L34.8645 17.978L34.8098 18.0724V17.8438L34.8645 17.9382L30.0321 15.8651V14.1001L36.8333 17.2422V18.674Z" fill="#CD1429"/>
</svg>
